<svg xmlns="http://www.w3.org/2000/svg" viewBox="0 0 566.93 566.93"><defs><style>.cls-1{fill:#122022;}.cls-2{fill:none;}.cls-3{fill:#ebeac0;}</style></defs><g id="brand_name" data-name="brand name"><rect class="cls-1" x="23.12" y="23.12" width="520.7" height="520.7"/><rect class="cls-2" width="566.93" height="566.93"/><path class="cls-3" d="M105.88,311.38l60.56-96h-38.9a11,11,0,0,0-7.06,2.43,20.83,20.83,0,0,0-5.18,6.32h-.81l4.31-11.57h66.61l-60.56,96.09h39a10.53,10.53,0,0,0,7-2.49,22.28,22.28,0,0,0,5.11-6.39h.95l-4.31,11.57Z"/><path class="cls-3" d="M308.42,212.6l4.31,11.57h-.81a21,21,0,0,0-5.18-6.32,11,11,0,0,0-7.07-2.43h-30v45.23h17.9a11.85,11.85,0,0,0,6.66-1.82,7.12,7.12,0,0,0,3.3-4.78v16a7.17,7.17,0,0,0-3.3-4.91,11.85,11.85,0,0,0-6.66-1.82h-17.9v45.36h31.76a10.61,10.61,0,0,0,6.93-2.49,21.65,21.65,0,0,0,5.18-6.39h.81l-4.17,11.57H246.65a6.61,6.61,0,0,0,4.77-3.23,12.08,12.08,0,0,0,1.82-6.73V222.56a11.77,11.77,0,0,0-1.82-6.66,7.1,7.1,0,0,0-4.77-3.3Z"/><path class="cls-3" d="M373.56,311.38a6.61,6.61,0,0,0,4.77-3.23,12.08,12.08,0,0,0,1.82-6.73V222.56a11.77,11.77,0,0,0-1.82-6.66,7.1,7.1,0,0,0-4.77-3.3h23a67,67,0,0,0,2.09,17.63A57.24,57.24,0,0,0,404.24,244a56,56,0,0,0,8.08,10.84,108.62,108.62,0,0,0,9.49,8.82q4.9,4,9.75,7.6a108.9,108.9,0,0,1,9,7.4,56.36,56.36,0,0,1,7.33,8.15,27.48,27.48,0,0,1,4.51,9.68V222.56a11.85,11.85,0,0,0-1.82-6.66,7.17,7.17,0,0,0-4.91-3.3h16a7.1,7.1,0,0,0-4.78,3.3,11.85,11.85,0,0,0-1.82,6.66v78.86a12.16,12.16,0,0,0,1.82,6.73,6.61,6.61,0,0,0,4.78,3.23h-23A38.78,38.78,0,0,0,436.54,298a41.7,41.7,0,0,0-5.79-10.7,60.18,60.18,0,0,0-8.27-9q-4.65-4.09-9.63-8.14T403,262a69.52,69.52,0,0,1-9-9.22,55.54,55.54,0,0,1-7.07-11.24,47.11,47.11,0,0,1-4-14.12v74a12.16,12.16,0,0,0,1.82,6.73,6.69,6.69,0,0,0,4.91,3.23Z"/><path class="cls-3" d="M94.37,349.69l2.11-1.34.13.15a4.43,4.43,0,0,0-.34,1.74A4.65,4.65,0,0,0,96.6,352a3.39,3.39,0,0,0,1,1.37,2.47,2.47,0,0,0,1.63.55,2.33,2.33,0,0,0,1.1-.28,3.08,3.08,0,0,0,.9-.74,3.85,3.85,0,0,0,.6-1.07,3.77,3.77,0,0,0,.21-1.25,3.09,3.09,0,0,0-.51-1.77,6.44,6.44,0,0,0-1.27-1.41c-.5-.42-1-.83-1.63-1.23A16.14,16.14,0,0,1,97,344.92a6.36,6.36,0,0,1-1.27-1.48,3.61,3.61,0,0,1-.5-1.92,4.11,4.11,0,0,1,.53-2.15,4.71,4.71,0,0,1,1.3-1.46,5.33,5.33,0,0,1,1.66-.81,5.59,5.59,0,0,1,1.62-.27,5.3,5.3,0,0,1,2.07.4,6.17,6.17,0,0,1,1.57.94,4.71,4.71,0,0,1,1,1.17,2.18,2.18,0,0,1,.36,1.06l-1.49,2.36-.24-.09a6.69,6.69,0,0,0,.13-1.9,5.34,5.34,0,0,0-.41-1.78,3.29,3.29,0,0,0-1-1.32,2.52,2.52,0,0,0-2.65-.26,3.1,3.1,0,0,0-.94.73,3.59,3.59,0,0,0-.67,1.15,4.4,4.4,0,0,0-.26,1.54,2.53,2.53,0,0,0,.51,1.57,6.26,6.26,0,0,0,1.26,1.26c.51.39,1.06.78,1.66,1.16a12.53,12.53,0,0,1,1.66,1.3,6.74,6.74,0,0,1,1.27,1.64,4.47,4.47,0,0,1,.5,2.2,3.72,3.72,0,0,1-.49,2,4.47,4.47,0,0,1-1.26,1.37,5.24,5.24,0,0,1-1.67.79,6,6,0,0,1-1.73.26,4.86,4.86,0,0,1-1.79-.33,5.15,5.15,0,0,1-1.52-1A5.43,5.43,0,0,1,95,351.57,6.26,6.26,0,0,1,94.37,349.69Z"/><path class="cls-3" d="M117.65,337.33H123a10.68,10.68,0,0,1,5.34,1.1,4,4,0,0,1,1.26,5.59,5.59,5.59,0,0,1-1.63,1.46,12.55,12.55,0,0,1-2.11,1,19.48,19.48,0,0,0-2.11,1,6.18,6.18,0,0,0-1.62,1.21,2.57,2.57,0,0,0-.65,1.82v1.63a2.07,2.07,0,0,0,.3,1.13,1.09,1.09,0,0,0,.8.53h-4.94a1.09,1.09,0,0,0,.8-.53,2.07,2.07,0,0,0,.3-1.13V339a2,2,0,0,0-.3-1.11A1.18,1.18,0,0,0,117.65,337.33ZM121.49,349a3.87,3.87,0,0,1,.84-1.31,12.45,12.45,0,0,1,1.2-1.08c.43-.33.88-.66,1.32-1a9.08,9.08,0,0,0,1.23-1.07,5.26,5.26,0,0,0,.89-1.3,3.79,3.79,0,0,0,.35-1.66,4.34,4.34,0,0,0-.32-1.75,3.19,3.19,0,0,0-.89-1.17,3.74,3.74,0,0,0-1.31-.65,6.5,6.5,0,0,0-1.63-.2h-1.68Z"/><path class="cls-3" d="M152.89,337.33l.72,1.93h-.14a3.67,3.67,0,0,0-.86-1.06,1.89,1.89,0,0,0-1.18-.4h-5v7.54h3a2.06,2.06,0,0,0,1.11-.3,1.18,1.18,0,0,0,.55-.8v2.67a1.19,1.19,0,0,0-.55-.82,2,2,0,0,0-1.11-.3h-3v7.56h5.29a1.76,1.76,0,0,0,1.16-.42,3.51,3.51,0,0,0,.86-1.06h.14l-.7,1.92H142.59a1.09,1.09,0,0,0,.8-.53,2.07,2.07,0,0,0,.3-1.13V339a2,2,0,0,0-.3-1.11,1.18,1.18,0,0,0-.8-.55Z"/><path class="cls-3" d="M172.2,336.81a7.14,7.14,0,0,1,1.93.27,5,5,0,0,1,1.65.84,4.85,4.85,0,0,1,1.22,1.46,5.61,5.61,0,0,1,.63,2.14l-3,.79a2.11,2.11,0,0,0,.3-.81,3.36,3.36,0,0,0,0-1.1,4.31,4.31,0,0,0-1-2.44,2.45,2.45,0,0,0-1.8-.79,3.61,3.61,0,0,0-1.39.32,3.54,3.54,0,0,0-1.34,1.11,5.86,5.86,0,0,0-1,1.9,10.82,10.82,0,0,0-.45,2.58,13.49,13.49,0,0,0,.21,3.16,11.66,11.66,0,0,0,1,3.08,9.55,9.55,0,0,0,1.57,2.38,6,6,0,0,0,1.93,1.45,3.5,3.5,0,0,0,2,.35,3.66,3.66,0,0,0,2.31-1.34,6.74,6.74,0,0,0,1.34-3.26h.5a6.82,6.82,0,0,1-1.92,4.17,5.66,5.66,0,0,1-3.78,1.24,7.45,7.45,0,0,1-3.23-.69,7.3,7.3,0,0,1-2.49-1.87,8.38,8.38,0,0,1-1.59-2.78,10,10,0,0,1-.56-3.41,10.83,10.83,0,0,1,.53-3.41,9.55,9.55,0,0,1,1.47-2.78,7.21,7.21,0,0,1,2.19-1.87A5.52,5.52,0,0,1,172.2,336.81Z"/><path class="cls-3" d="M191.22,337.33h4.94a1.18,1.18,0,0,0-.8.55,2,2,0,0,0-.3,1.11v13.14a2.07,2.07,0,0,0,.3,1.13,1.09,1.09,0,0,0,.8.53h-4.94a1.09,1.09,0,0,0,.8-.53,2.07,2.07,0,0,0,.3-1.13V339a2,2,0,0,0-.3-1.11A1.18,1.18,0,0,0,191.22,337.33Z"/><path class="cls-3" d="M209.55,352.43l4.08-13.06a3.26,3.26,0,0,1,.88-1.63,1.69,1.69,0,0,1,1-.41,2,2,0,0,1,1.21.42,3.23,3.23,0,0,1,.94,1.58l4.13,12.8a3.08,3.08,0,0,0,.68,1.13,1.67,1.67,0,0,0,1,.53h-4.94a.71.71,0,0,0,.64-.52,1.84,1.84,0,0,0-.08-1.14l-1-3a7.12,7.12,0,0,0-.59-1.34,3.55,3.55,0,0,0-.7-.84,2.27,2.27,0,0,0-.79-.43,2.59,2.59,0,0,0-.81-.13,3,3,0,0,0-1.35.38,5.82,5.82,0,0,0-1.39,1.07,8.65,8.65,0,0,0-1.25,1.67,10.73,10.73,0,0,0-.95,2.2l-.16.49a2.44,2.44,0,0,0-.15,1.16.61.61,0,0,0,.6.43h-2.35a1.45,1.45,0,0,0,.82-.37A2.63,2.63,0,0,0,209.55,352.43Zm5.61-6.4c.14,0,.31,0,.5,0a2.16,2.16,0,0,1,.58.15,2.29,2.29,0,0,1,.6.31,2.45,2.45,0,0,1,.54.53l-2.16-6.7a6.12,6.12,0,0,0-.35-.85c-.11-.23-.24-.34-.39-.34a.38.38,0,0,0-.32.22,5.41,5.41,0,0,0-.4,1L211,349.11a8.92,8.92,0,0,1,1.21-1.58,6.56,6.56,0,0,1,1.16-.94,3.89,3.89,0,0,1,1-.45A3.63,3.63,0,0,1,215.16,346Z"/><path class="cls-3" d="M235.16,353.79a1.09,1.09,0,0,0,.8-.53,2.07,2.07,0,0,0,.3-1.13V339a2,2,0,0,0-.3-1.11,1.18,1.18,0,0,0-.8-.55h4.94a1.18,1.18,0,0,0-.8.55A2,2,0,0,0,239,339v14.36h4.93a1.76,1.76,0,0,0,1.16-.42,3.67,3.67,0,0,0,.86-1.06h.13l-.71,1.92Z"/><path class="cls-3" d="M253.76,339.26l.71-1.93h12.34l.72,1.93h-.16a3.19,3.19,0,0,0-.84-1.06,1.89,1.89,0,0,0-1.18-.4H262v14.33a2.07,2.07,0,0,0,.3,1.13,1.11,1.11,0,0,0,.8.53h-4.93a1.09,1.09,0,0,0,.79-.53,2.07,2.07,0,0,0,.3-1.13V337.8h-3.34a1.89,1.89,0,0,0-1.18.4,3.67,3.67,0,0,0-.86,1.06Z"/><path class="cls-3" d="M284.62,337.33a.65.65,0,0,0-.58.53,1.73,1.73,0,0,0,.22,1.08l3.37,7.2a8.43,8.43,0,0,1,.6-1.84c.27-.58.57-1.16.89-1.73s.65-1.16,1-1.74.65-1.19.94-1.82a1.67,1.67,0,0,0,.13-1.16.77.77,0,0,0-.65-.52h2.71a1.89,1.89,0,0,0-.92.52,3.2,3.2,0,0,0-.71,1,19.46,19.46,0,0,1-1.12,2.29c-.42.71-.82,1.41-1.18,2.08a15.53,15.53,0,0,0-.92,2,5.69,5.69,0,0,0-.37,2v4.84a2.07,2.07,0,0,0,.3,1.13,1.09,1.09,0,0,0,.8.53h-4.94a1.05,1.05,0,0,0,.81-.53,2.16,2.16,0,0,0,.29-1.13v-4.84L281.59,339a3,3,0,0,0-.84-1.13,2.17,2.17,0,0,0-1-.51Z"/><path class="cls-3" d="M345.88,336.81a7.25,7.25,0,0,1,1.93.27,4.81,4.81,0,0,1,1.64.84,4.88,4.88,0,0,1,1.23,1.46,5.79,5.79,0,0,1,.63,2.14l-3,.79a2.29,2.29,0,0,0,.3-.81,3.11,3.11,0,0,0,0-1.1,4.24,4.24,0,0,0-1-2.44,2.43,2.43,0,0,0-1.79-.79,3.53,3.53,0,0,0-1.39.32,3.57,3.57,0,0,0-1.35,1.11,5.85,5.85,0,0,0-1,1.9,10.82,10.82,0,0,0-.45,2.58,14,14,0,0,0,.2,3.16,11.66,11.66,0,0,0,1,3.08,9.57,9.57,0,0,0,1.58,2.38,6,6,0,0,0,1.92,1.45,3.5,3.5,0,0,0,2,.35,3.61,3.61,0,0,0,2.31-1.34,6.75,6.75,0,0,0,1.35-3.26h.49a6.76,6.76,0,0,1-1.91,4.17,5.67,5.67,0,0,1-3.79,1.24,7.41,7.41,0,0,1-3.22-.69,7.24,7.24,0,0,1-2.5-1.87,8.74,8.74,0,0,1-1.59-2.78,10.29,10.29,0,0,1-.56-3.41,10.55,10.55,0,0,1,.54-3.41,9.32,9.32,0,0,1,1.47-2.78,7.09,7.09,0,0,1,2.19-1.87A5.47,5.47,0,0,1,345.88,336.81Z"/><path class="cls-3" d="M365,345.56a10.55,10.55,0,0,1,.53-3.41,9.32,9.32,0,0,1,1.47-2.78,7.09,7.09,0,0,1,2.19-1.87,5.55,5.55,0,0,1,5.36,0,7.24,7.24,0,0,1,2.2,1.87,9.12,9.12,0,0,1,1.48,2.78,11,11,0,0,1,0,6.82,9.12,9.12,0,0,1-1.48,2.78,7,7,0,0,1-2.2,1.87,5.55,5.55,0,0,1-5.36,0,6.83,6.83,0,0,1-2.19-1.87A9.32,9.32,0,0,1,365.5,349,10.55,10.55,0,0,1,365,345.56Zm2.93.68a16.62,16.62,0,0,0,.85,3.13,11.77,11.77,0,0,0,1.28,2.46,5.65,5.65,0,0,0,1.55,1.54,2.34,2.34,0,0,0,1.64.38,2.29,2.29,0,0,0,1.42-.9,5.37,5.37,0,0,0,1-2,11.15,11.15,0,0,0,.4-2.75,16.37,16.37,0,0,0-.21-3.23,16,16,0,0,0-.85-3.14,11.68,11.68,0,0,0-1.29-2.45,5.86,5.86,0,0,0-1.56-1.55,2.25,2.25,0,0,0-1.64-.39,2.28,2.28,0,0,0-1.42.89,5.42,5.42,0,0,0-1,2,11.48,11.48,0,0,0-.4,2.74A16.09,16.09,0,0,0,367.9,346.24Z"/><path class="cls-3" d="M401.7,337.33l.72,1.93h-.13a3.54,3.54,0,0,0-.87-1.06,1.86,1.86,0,0,0-1.17-.4h-5v7.54h3a2.09,2.09,0,0,0,1.11-.3,1.18,1.18,0,0,0,.55-.8v2.67a1.19,1.19,0,0,0-.55-.82,2,2,0,0,0-1.11-.3h-3v6.34a2,2,0,0,0,.3,1.13,1.09,1.09,0,0,0,.79.53h-4.93a1.11,1.11,0,0,0,.8-.53,2.07,2.07,0,0,0,.3-1.13V339a2,2,0,0,0-.3-1.11,1.2,1.2,0,0,0-.8-.55Z"/><path class="cls-3" d="M424.94,337.33l.72,1.93h-.13a3.69,3.69,0,0,0-.87-1.06,1.87,1.87,0,0,0-1.18-.4h-5v7.54h3a2.09,2.09,0,0,0,1.11-.3,1.19,1.19,0,0,0,.54-.8v2.67a1.21,1.21,0,0,0-.54-.82,2,2,0,0,0-1.11-.3h-3v6.34a2.07,2.07,0,0,0,.3,1.13,1.11,1.11,0,0,0,.8.53h-4.93a1.07,1.07,0,0,0,.79-.53,2.08,2.08,0,0,0,.31-1.13V339a2,2,0,0,0-.31-1.11,1.16,1.16,0,0,0-.79-.55Z"/><path class="cls-3" d="M448.18,337.33l.72,1.93h-.14a3.51,3.51,0,0,0-.86-1.06,1.89,1.89,0,0,0-1.18-.4h-5v7.54h3a2,2,0,0,0,1.11-.3,1.18,1.18,0,0,0,.55-.8v2.67a1.19,1.19,0,0,0-.55-.82,2,2,0,0,0-1.11-.3h-3v7.56H447a1.76,1.76,0,0,0,1.16-.42,3.51,3.51,0,0,0,.86-1.06h.14l-.7,1.92H437.89a1.09,1.09,0,0,0,.79-.53,2.07,2.07,0,0,0,.3-1.13V339a2,2,0,0,0-.3-1.11,1.18,1.18,0,0,0-.79-.55Z"/><path class="cls-3" d="M471.57,337.33l.72,1.93h-.13a3.54,3.54,0,0,0-.87-1.06,1.87,1.87,0,0,0-1.18-.4h-5v7.54h3a2.09,2.09,0,0,0,1.11-.3,1.18,1.18,0,0,0,.55-.8v2.67a1.19,1.19,0,0,0-.55-.82,2,2,0,0,0-1.11-.3h-3v7.56h5.29a1.74,1.74,0,0,0,1.15-.42,3.54,3.54,0,0,0,.87-1.06h.13l-.7,1.92H461.28a1.11,1.11,0,0,0,.8-.53,2.07,2.07,0,0,0,.3-1.13V339a2,2,0,0,0-.3-1.11,1.2,1.2,0,0,0-.8-.55Z"/></g></svg>